<?xml version="1.0"?>
<svg xmlns="http://www.w3.org/2000/svg" xmlns:xlink="http://www.w3.org/1999/xlink" version="1.1" id="Capa_1" x="0px" y="0px" viewBox="0 0 277.777 277.777" style="enable-background:new 0 0 277.777 277.777;" xml:space="preserve" width="512px" height="512px" class=""><g><path d="M8.025,138.889c0,76.583,58.705,138.889,130.863,138.889c46.959,0,90.567-26.928,113.809-70.275l-24.481-13.126  C209.821,228.686,175.592,250,138.888,250c-35.024,0-66.022-18.93-84.66-47.793v-49.43h215.524v-13.889  C269.752,62.305,211.047,0,138.888,0S8.025,62.305,8.025,138.889z M54.228,75.57c18.638-28.863,49.636-47.793,84.66-47.793  c36.505,0,68.634,20.564,86.955,51.505V125H54.228V75.57z" data-original="#000000" class="active-path" data-old_color="#ffffff" fill="#ffffff"/></g> </svg>
