<?xml version="1.0"?>
<svg xmlns="http://www.w3.org/2000/svg" xmlns:xlink="http://www.w3.org/1999/xlink" version="1.1" id="Capa_1" x="0px" y="0px" viewBox="0 0 492 492" style="enable-background:new 0 0 492 492;" xml:space="preserve" width="512px" height="512px" class=""><g><g>
	<path d="M369,0c-2.667,0-5,1-7,3s-3,4.333-3,7v144c0,2.667-1,5-3,7s-4.667,3-8,3H144c-3.333,0-6-1-8-3   s-3-4.333-3-7V10c0-2.667-1-5-3-7s-4.333-3-7-3H31c-2.667,0-5,1-7,3s-3,4.333-3,7v472c0,2.667,1,5,3,7s4.333,3,7,3h92   c2.667,0,5-1,7-3s3-4.333,3-7V318c0-3.333,1-6,3-8s4.667-3,8-3h204c3.333,0,6,1,8,3s3,4.667,3,8v164c0,2.667,1,5,3,7s4.333,3,7,3   h92c2.667,0,5-1,7-3s3-4.333,3-7V10c0-2.667-1-5-3-7s-4.333-3-7-3H369z" data-original="#010002" class="active-path" data-old_color="#FDFBFB" fill="#FFFCFC"/>
</g></g> </svg>
